<mxfile host="65bd71144e">
    <diagram id="pHeiOCAHlGzyR3VbziXK" name="Page-1">
        <mxGraphModel dx="558" dy="411" grid="1" gridSize="10" guides="1" tooltips="1" connect="1" arrows="1" fold="1" page="1" pageScale="1" pageWidth="850" pageHeight="1100" math="0" shadow="0">
            <root>
                <mxCell id="0"/>
                <mxCell id="1" parent="0"/>
                <mxCell id="10" value="Login Details&lt;br&gt;Pet Information" style="edgeStyle=none;html=1;exitX=1;exitY=1;exitDx=0;exitDy=0;entryX=0.036;entryY=0.683;entryDx=0;entryDy=0;entryPerimeter=0;fontFamily=Times New Roman;" parent="1" target="3" edge="1">
                    <mxGeometry relative="1" as="geometry">
                        <Array as="points">
                            <mxPoint x="270" y="270"/>
                        </Array>
                        <mxPoint x="192.42640687119297" y="238.28427124746202" as="sourcePoint"/>
                    </mxGeometry>
                </mxCell>
                <mxCell id="9" value="Information&amp;nbsp;&lt;br&gt;Instructions&lt;br&gt;Community Posts" style="edgeStyle=none;html=1;entryX=1;entryY=0;entryDx=0;entryDy=0;exitX=0;exitY=0;exitDx=0;exitDy=0;fontFamily=Times New Roman;" parent="1" source="3" edge="1">
                    <mxGeometry relative="1" as="geometry">
                        <Array as="points">
                            <mxPoint x="270" y="150"/>
                        </Array>
                        <mxPoint x="192.42640687119297" y="181.71572875253787" as="targetPoint"/>
                    </mxGeometry>
                </mxCell>
                <mxCell id="11" value="Requested Products" style="edgeStyle=none;html=1;entryX=1;entryY=0;entryDx=0;entryDy=0;exitX=0;exitY=1;exitDx=0;exitDy=0;fontFamily=Times New Roman;" parent="1" source="3" edge="1">
                    <mxGeometry relative="1" as="geometry">
                        <Array as="points">
                            <mxPoint x="280" y="320"/>
                        </Array>
                        <mxPoint x="352.42640687119274" y="411.7157287525381" as="targetPoint"/>
                    </mxGeometry>
                </mxCell>
                <mxCell id="15" value="Requested Posts" style="edgeStyle=none;html=1;entryX=0.5;entryY=0;entryDx=0;entryDy=0;fontFamily=Times New Roman;" parent="1" source="3" edge="1">
                    <mxGeometry x="0.3011" y="9" relative="1" as="geometry">
                        <Array as="points">
                            <mxPoint x="610" y="260"/>
                        </Array>
                        <mxPoint as="offset"/>
                        <mxPoint x="610" y="360" as="targetPoint"/>
                    </mxGeometry>
                </mxCell>
                <mxCell id="18" value="System Overview" style="edgeStyle=none;html=1;fontFamily=Times New Roman;" parent="1" source="3" edge="1">
                    <mxGeometry relative="1" as="geometry">
                        <Array as="points">
                            <mxPoint x="610" y="160"/>
                        </Array>
                        <mxPoint x="660" y="190" as="targetPoint"/>
                    </mxGeometry>
                </mxCell>
                <mxCell id="3" value="&lt;br&gt;&lt;br&gt;HelloPet App" style="ellipse;whiteSpace=wrap;html=1;movable=1;resizable=1;rotatable=1;deletable=1;editable=1;connectable=1;fontFamily=Times New Roman;" parent="1" vertex="1">
                    <mxGeometry x="315" y="140" width="220" height="140" as="geometry"/>
                </mxCell>
                <mxCell id="17" value="User Management" style="edgeStyle=none;html=1;fontFamily=Times New Roman;" parent="1" target="3" edge="1">
                    <mxGeometry relative="1" as="geometry">
                        <Array as="points">
                            <mxPoint x="600" y="230"/>
                        </Array>
                        <mxPoint x="671.5365282583259" y="218.99438026794996" as="sourcePoint"/>
                    </mxGeometry>
                </mxCell>
                <mxCell id="12" value="Products" style="edgeStyle=none;html=1;fontFamily=Times New Roman;" parent="1" edge="1">
                    <mxGeometry relative="1" as="geometry">
                        <Array as="points">
                            <mxPoint x="420" y="340"/>
                        </Array>
                        <mxPoint x="345.48181981765106" y="407.74380016577175" as="sourcePoint"/>
                        <mxPoint x="410" y="280" as="targetPoint"/>
                    </mxGeometry>
                </mxCell>
                <mxCell id="16" value="Verify Posts&lt;br&gt;&amp;amp; comments" style="edgeStyle=none;html=1;entryX=1;entryY=1;entryDx=0;entryDy=0;fontFamily=Times New Roman;" parent="1" target="3" edge="1">
                    <mxGeometry x="0.1713" y="5" relative="1" as="geometry">
                        <Array as="points">
                            <mxPoint x="510" y="340"/>
                        </Array>
                        <mxPoint as="offset"/>
                        <mxPoint x="565.4023512251699" y="373.2414107351019" as="sourcePoint"/>
                    </mxGeometry>
                </mxCell>
                <mxCell id="21" value="" style="endArrow=none;html=1;exitX=0.027;exitY=0.372;exitDx=0;exitDy=0;exitPerimeter=0;movable=0;resizable=0;rotatable=0;deletable=0;editable=0;connectable=0;" parent="1" source="3" edge="1">
                    <mxGeometry width="50" height="50" relative="1" as="geometry">
                        <mxPoint x="340" y="210" as="sourcePoint"/>
                        <mxPoint x="530" y="190" as="targetPoint"/>
                    </mxGeometry>
                </mxCell>
                <mxCell id="22" value="1.0" style="text;html=1;align=center;verticalAlign=middle;resizable=1;points=[];autosize=1;strokeColor=none;fillColor=none;movable=1;rotatable=1;deletable=1;editable=1;connectable=1;fontFamily=Times New Roman;" parent="1" vertex="1">
                    <mxGeometry x="405" y="150" width="40" height="30" as="geometry"/>
                </mxCell>
                <mxCell id="24" value="Pet Owner" style="rounded=0;whiteSpace=wrap;html=1;fontFamily=Times New Roman;" parent="1" vertex="1">
                    <mxGeometry x="80" y="180" width="120" height="60" as="geometry"/>
                </mxCell>
                <mxCell id="25" value="Shop Owners" style="rounded=0;whiteSpace=wrap;html=1;fontFamily=Times New Roman;" parent="1" vertex="1">
                    <mxGeometry x="285" y="410" width="120" height="60" as="geometry"/>
                </mxCell>
                <mxCell id="26" value="Community Admins" style="rounded=0;whiteSpace=wrap;html=1;fontFamily=Times New Roman;" parent="1" vertex="1">
                    <mxGeometry x="560" y="360" width="120" height="60" as="geometry"/>
                </mxCell>
                <mxCell id="27" value="Admins" style="rounded=0;whiteSpace=wrap;html=1;fontFamily=Times New Roman;" parent="1" vertex="1">
                    <mxGeometry x="660" y="170" width="120" height="60" as="geometry"/>
                </mxCell>
            </root>
        </mxGraphModel>
    </diagram>
</mxfile>